<?xml version="1.0" encoding="iso-8859-1"?>
<!-- Uploaded to: SVG Repo, www.svgrepo.com, Generator: SVG Repo Mixer Tools -->
<!DOCTYPE svg PUBLIC "-//W3C//DTD SVG 1.1//EN" "http://www.w3.org/Graphics/SVG/1.1/DTD/svg11.dtd">
<svg fill="#000000" height="800px" width="800px" version="1.1" id="Capa_1" xmlns="http://www.w3.org/2000/svg" xmlns:xlink="http://www.w3.org/1999/xlink" 
	 viewBox="0 0 240.984 240.984" xml:space="preserve">
<g>
	<path d="M154.448,119.642c-0.941,0-1.906,0.135-2.871,0.4l-5.45,1.502l-6.975-16.989c-3.21-7.818-12.697-14.179-21.148-14.179
		H45.539c-8.452,0-17.939,6.361-21.148,14.179l-6.963,16.961l-5.349-1.474c-0.964-0.266-1.929-0.4-2.87-0.4
		c-5.156,0-8.899,3.939-8.899,9.366v0.199c0,5.6,4.029,10.27,9.338,11.28c-2.899,7.313-5.23,19.263-5.23,26.956v35.283
		c0,6.335,5.154,11.489,11.489,11.489h6.619c6.335,0,11.489-5.154,11.489-11.489v-7.366h95.513v7.366
		c0,6.335,5.154,11.489,11.489,11.489h6.619c6.335,0,11.489-5.154,11.489-11.489v-35.283c0-7.689-2.328-19.627-5.225-26.939
		c5.362-0.969,9.445-5.66,9.445-11.297v-0.199C163.347,123.582,159.605,119.642,154.448,119.642z M24.815,133.31l11.077-26.986
		c1.92-4.677,7.626-8.503,12.681-8.503h66.397c5.055,0,10.762,3.826,12.681,8.502l11.08,26.988c1.919,4.676-0.646,8.502-5.701,8.502
		H30.516C25.461,141.813,22.896,137.987,24.815,133.31z M52.585,173.829c0,2.527-2.068,4.596-4.596,4.596H25.921
		c-2.528,0-4.596-2.068-4.596-4.596v-9.39c0-2.527,2.068-4.596,4.596-4.596h22.068c2.528,0,4.596,2.068,4.596,4.596V173.829z
		 M141.99,173.829c0,2.527-2.068,4.596-4.596,4.596h-22.068c-2.528,0-4.596-2.068-4.596-4.596v-9.39
		c0-2.527,2.068-4.596,4.596-4.596h22.068c2.528,0,4.596,2.068,4.596,4.596V173.829z"/>
	<path d="M237.745,26.665c-2.191-2.793-5.588-4.595-9.413-4.595H11.968C5.358,22.07,0,27.428,0,34.038s5.358,11.968,11.968,11.968
		h157.367v160.575c0,6.801,5.532,12.333,12.333,12.333h46.984c6.8,0,12.333-5.532,12.333-12.333V34.967
		C240.984,31.767,239.749,28.858,237.745,26.665z M206.708,156.818c-13.549,0.931-25.165-7.548-26.096-21.096
		c-0.93-13.55,21.579-28.039,21.809-41.37c0.167-9.589,26.326,24.453,27.255,38.002
		C230.607,145.903,220.257,155.888,206.708,156.818z"/>
</g>
</svg>