<?xml version="1.0" encoding="utf-8"?>
<!DOCTYPE svg PUBLIC "-//W3C//DTD SVG 1.1//EN" "http://www.w3.org/Graphics/SVG/1.1/DTD/svg11.dtd">
<svg version="1.1" xmlns="http://www.w3.org/2000/svg" xmlns:xlink="http://www.w3.org/1999/xlink" x="0px" y="0px" viewBox="0 0 1000 1000" enable-background="new 0 0 1000 1000" xml:space="preserve">
<metadata> Svg Vector Icons : http://www.onlinewebfonts.com/icon </metadata>
<g><g transform="translate(0.000000,511.000000) scale(0.100000,-0.100000)"><path d="M3576.7,3738.3c-42-42-46.7-77-46.7-319.7c0-151.7,9.3-287,18.7-301c46.7-70,128.3-79.3,679-79.3H4790V2700v-338.3h431.7h431.7V2700v338.3h595h597.3l56,58.3c56,53.7,58.3,70,58.3,326.7c0,238-4.7,273-46.7,315c-46.7,46.7-77,46.7-1668.3,46.7S3623.3,3785,3576.7,3738.3z"/><path d="M3448.3,2060.7c-84-39.7-795.7-695.3-1017.3-935.7l-86.3-93.3h-357c-298.7,0-375.7-9.3-452.7-44.3C1315.7,887,1290,803,1290,191.7v-490h-231H828l-2.3,599.7c0,735,28,683.7-366.3,683.7c-235.7,0-270.7-4.7-312.7-46.7C100,891.7,100,861.3,100-737c0-1549.3,2.3-1633.3,42-1668.3c35-32.7,95.7-39.7,324.3-39.7c394.3,0,366.3-51.3,375.7,690.7l7,592.7h219.3H1290V-1668c0-443.3,7-520.3,44.3-602c93.3-205.3,198.3-245,653.3-245h350l88.7-93.3c200.7-210,933.3-865.7,1010.3-903c74.7-39.7,219.3-42,1890-49L7135-3565l105,51.3c81.7,42,235.7,205.3,718.7,765.3c364,422.3,637,758.3,672,828.3c51.3,105,56,147,56,438.7v319.7H8920h231l7-592.7c9.3-742-18.7-690.7,380.3-690.7c245,0,289.3,4.7,322,42c37.3,39.7,39.7,189,39.7,1668.3c0,1596,0,1626.3-46.7,1673c-42,42-77,46.7-312.7,46.7c-401.3,0-373.3,49-382.6-686l-7-597.3h-231h-233.3v984.7c0,949.7-2.3,987-49,1085c-60.7,126-224,270.7-343,305.7c-67.7,21-702.3,28-2422,28C3651.3,2105,3537,2102.7,3448.3,2060.7z M6596,1001.3c14-86.3,32.6-119,81.7-144.7c58.3-30.3,72.3-25.7,175,39.7l109.6,72.3L7065,866l105-102.7L7097.7,656c-60.7-95.7-65.4-114.3-42-170.3c16.3-35,53.7-67.7,88.7-74.7c179.6-39.7,177.3-37.3,184.3-189l7-142.3l-128.3-28c-107.3-21-130.7-37.3-154-93.3c-25.7-63-23.3-77,32.7-149.4c32.6-44.3,60.6-95.6,60.6-112c0-18.7-42-74.7-93.3-123.7c-88.7-86.3-98-88.7-147-58.3c-156.3,98-172.7,102.7-233.3,77c-44.3-21-63-51.3-74.7-128.3c-9.4-56-28-114.3-39.7-128.3c-25.7-32.7-221.7-39.7-268.3-11.7c-14,9.3-32.7,67.7-42,128.3c-25.7,165.7-121.3,203-259,98c-42-32.7-84-58.3-93.3-58.3c-32.7,0-196,172.7-196,207.7c0,18.7,28,67.7,60.7,112c53.7,70,58.3,86.3,32.7,147c-23.3,56-49,72.3-154,93.3l-128.3,28l7,142.3c7,151.7,4.7,149.3,189,189c39.7,9.3,72.3,37.3,88.7,77c18.7,51.3,11.7,77-46.7,168l-72.3,107.3l105,102.7l102.7,102.7l109.6-72.3c102.7-65.3,116.7-70,175-39.7c51.3,28,65.4,56,79.4,151.7l16.3,119l154-7l156.3-7L6596,1001.3z M4776,70.3c7-30.3,21-100.3,30.3-158.7c16.3-91,32.7-109.7,107.3-147L5000-275l123.7,81.7C5189-149,5259-111.7,5280-111.7c42,0,256.7-207.7,256.7-249.7c0-16.3-37.3-84-84-147c-84-116.7-84-121.3-51.3-205.3c30.3-81.7,39.7-88.7,193.7-121.3l163.3-35l7-172.7c4.7-98-4.7-182-18.7-200.7c-14-16.3-79.3-37.3-147-44.3c-147-18.7-163.3-28-200.7-126c-30.3-72.4-28-81.7,53.7-203c46.7-70,84-135.3,84-144.7c0-23.3-238-263.7-261.3-263.7c-11.7,0-77,37.3-147,84c-121.3,81.7-130.7,84-203,53.7c-95.7-37.3-105-49-123.7-182c-28-184.3-37.3-191.3-240.3-184.3l-179.7,7L4349-2081c-32.7,163.3-37.3,168-119,196s-93.3,23.3-219.3-60.7l-133-86.3l-126,123.7c-70,70-128.3,137.7-128.3,151.7c0,14,37.3,79.3,84,147L3789-1486l-42,86.3c-37.3,79.3-53.7,88.7-175,109.7c-72.3,14-144.7,35-158.7,49c-16.3,14-23.3,95.7-18.7,198.3l7,172.7l158.7,35c147,32.7,163.3,42,193.7,114.3c32.7,77,30.3,84-49,205.3c-44.3,67.7-81.7,135.3-81.7,151.7c0,39.7,212.3,252,249.7,252c16.3,0,86.3-37.3,154-81.7c121.3-81.7,126-81.7,207.7-49c77,32.7,84,46.7,112,182c14,81.7,32.7,154,39.7,165.7c4.7,9.3,93.3,16.3,193.7,16.3C4752.7,121.7,4766.7,119.3,4776,70.3z"/><path d="M6255.3,441.3c-123.7-105-147-238-58.3-368.7C6388.3-212,6827,49.3,6668.3,355c-51.3,98-123.7,140-245,140C6348.7,495,6299.7,478.7,6255.3,441.3z"/><path d="M4421.3-734.7c-228.7-112-275.3-408.3-88.7-588c135.3-130.7,343-130.7,490-2.3c189,168,144.7,480.7-86.3,585.7C4617.3-685.7,4521.7-683.3,4421.3-734.7z"/></g></g>
</svg>